<?xml version="1.0" encoding="iso-8859-1"?>
<!-- Uploaded to: SVG Repo, www.svgrepo.com, Generator: SVG Repo Mixer Tools -->
<svg version="1.1" id="Layer_1" xmlns="http://www.w3.org/2000/svg" xmlns:xlink="http://www.w3.org/1999/xlink" 
	 viewBox="0 0 512 512" xml:space="preserve">
<path style="fill:#B4D8F1;" d="M298.667,176.044V0h-85.333v176.044c-73.61,18.945-128,85.766-128,165.289
	C85.333,435.59,161.744,512,256,512s170.667-76.41,170.667-170.667C426.667,261.81,372.277,194.99,298.667,176.044z"/>
<path style="fill:#98C8ED;" d="M298.667,176.044V0H256v512c94.256,0,170.667-76.41,170.667-170.667
	C426.667,261.81,372.277,194.99,298.667,176.044z"/>
<path style="fill:#E592BF;" d="M85.333,341.333C85.333,435.59,161.744,512,256,512s170.667-76.41,170.667-170.667H85.333z"/>
<rect x="213.333" style="fill:#A58868;" width="85.333" height="85.333"/>
<rect x="256" style="fill:#947859;" width="42.667" height="85.333"/>
<path style="fill:#E176AF;" d="M256,341.333V512c94.256,0,170.667-76.41,170.667-170.667H256z"/>
</svg>