<?xml version="1.0" encoding="iso-8859-1"?>
<!-- Uploaded to: SVG Repo, www.svgrepo.com, Generator: SVG Repo Mixer Tools -->
<svg height="800px" width="800px" version="1.1" id="Layer_1" xmlns="http://www.w3.org/2000/svg" xmlns:xlink="http://www.w3.org/1999/xlink" 
	 viewBox="0 0 512 512" xml:space="preserve">
<path style="fill:#82C8DB;" d="M413.539,8.44L368.528,503.56h33.758c24.756,0,45.011-20.255,45.011-45.011V8.44H413.539z"/>
<path style="fill:#A3DDE9;" d="M64.703,8.44l33.758,78.769v371.341c0,24.756,20.255,45.011,45.011,45.011h225.055
	c24.756,0,45.011-20.255,45.011-45.011V8.44H64.703z"/>
<path d="M188.484,331.956h-45.011c-4.661,0-8.44-3.779-8.44-8.44s3.779-8.44,8.44-8.44h45.011c4.661,0,8.44,3.779,8.44,8.44
	S193.145,331.956,188.484,331.956z"/>
<path d="M188.484,399.473h-45.011c-4.661,0-8.44-3.779-8.44-8.44s3.779-8.44,8.44-8.44h45.011c4.661,0,8.44,3.779,8.44,8.44
	S193.145,399.473,188.484,399.473z"/>
<path d="M188.484,264.44h-45.011c-4.661,0-8.44-3.779-8.44-8.44c0-4.661,3.779-8.44,8.44-8.44h45.011c4.661,0,8.44,3.779,8.44,8.44
	C196.923,260.661,193.145,264.44,188.484,264.44z"/>
<path d="M188.484,196.923h-45.011c-4.661,0-8.44-3.779-8.44-8.44s3.779-8.44,8.44-8.44h45.011c4.661,0,8.44,3.779,8.44,8.44
	S193.145,196.923,188.484,196.923z"/>
<path d="M188.484,129.407h-45.011c-4.661,0-8.44-3.779-8.44-8.44c0-4.661,3.779-8.44,8.44-8.44h45.011c4.661,0,8.44,3.779,8.44,8.44
	C196.923,125.628,193.145,129.407,188.484,129.407z"/>
<path d="M188.484,466.989h-45.011c-4.661,0-8.44-3.779-8.44-8.44V53.451c0-4.661,3.779-8.44,8.44-8.44h45.011
	c4.661,0,8.44,3.779,8.44,8.44s-3.779,8.44-8.44,8.44h-36.571v388.22h36.571c4.661,0,8.44,3.779,8.44,8.44
	S193.145,466.989,188.484,466.989z"/>
<path d="M402.286,512H143.473c-29.472,0-53.451-23.978-53.451-53.451V88.942L56.946,11.765c-1.117-2.607-0.85-5.603,0.711-7.971
	C59.219,1.426,61.867,0,64.703,0h382.593c4.662,0,8.44,3.779,8.44,8.44v450.11C455.736,488.022,431.758,512,402.286,512z
	 M77.502,16.879l28.717,67.004c0.45,1.051,0.682,2.182,0.682,3.325v371.341c0,20.165,16.407,36.571,36.571,36.571h258.813
	c20.166,0,36.571-16.406,36.571-36.571V16.879H77.502z"/>
</svg>