<?xml version="1.0" encoding="iso-8859-1"?>
<!-- Uploaded to: SVG Repo, www.svgrepo.com, Generator: SVG Repo Mixer Tools -->
<svg height="800px" width="800px" version="1.1" id="Layer_1" xmlns="http://www.w3.org/2000/svg" xmlns:xlink="http://www.w3.org/1999/xlink" 
	 viewBox="0 0 511.999 511.999" xml:space="preserve">
<path style="fill:#E6E9ED;" d="M458.484,398.562l-138.5-227.891V21.344h-128v149.328L53.516,398.562
	c-6.906,11.297-10.844,24.578-10.844,38.781c0,41.234,33.406,74.656,74.656,74.656h277.344c41.219,0,74.656-33.422,74.656-74.656
	C469.328,423.141,465.359,409.859,458.484,398.562z"/>
<path style="fill:#CCD1D9;" d="M341.328,32c0,17.672-14.344,32-32,32H202.672c-17.688,0-32-14.328-32-32l0,0
	c0-17.672,14.312-32,32-32h106.656C326.984,0,341.328,14.328,341.328,32L341.328,32z"/>
<path style="fill:#48CFAD;" d="M414.547,326.266c-8.969,10.156-19.469,19.453-31.375,27.516
	c-20.844,14.125-41.188,21.5-61.219,23.609c-44.375,4.672-87.406-16.484-131.938-47.625c-22.531-15.734-46.562-29.688-71.469-38.234
	l-65.03,107.03c-6.906,11.297-10.844,24.578-10.844,38.781c0,41.234,33.406,74.656,74.656,74.656h277.344
	c41.219,0,74.656-33.422,74.656-74.656c0-14.203-3.969-27.484-10.844-38.781L414.547,326.266z"/>
</svg>